<svg width="32" height="32" viewBox="0 0 32 32" fill="none" xmlns="http://www.w3.org/2000/svg">
<path d="M15.001 14H17.001V19H15.001V14ZM15 20H17V22H15V20Z" fill="#F4501C"/>
<path d="M17.768 8.2C17.42 7.545 16.742 7.138 16 7.138C15.258 7.138 14.58 7.545 14.232 8.201L6.89402 22.064C6.73157 22.3685 6.65113 22.7101 6.6606 23.0551C6.67007 23.4002 6.76912 23.7368 6.94802 24.032C7.12441 24.3287 7.37529 24.574 7.67577 24.7438C7.97625 24.9136 8.31589 25.0019 8.66102 25H23.339C24.047 25 24.688 24.638 25.053 24.032C25.2319 23.7368 25.331 23.4002 25.3404 23.0551C25.3499 22.7101 25.2695 22.3685 25.107 22.064L17.768 8.2ZM8.66102 23L16 9.137L23.344 23H8.66102Z" fill="#F4501C"/>
</svg>
