<svg width="32" height="32" viewBox="0 0 32 32" fill="none" xmlns="http://www.w3.org/2000/svg">
<g clip-path="url(#clip0_215_72)">
<path d="M21.2249 13.8917C21.3919 13.7188 21.4843 13.4872 21.4822 13.2469C21.4801 13.0065 21.3837 12.7766 21.2138 12.6067C21.0438 12.4367 20.8139 12.3403 20.5735 12.3382C20.3332 12.3361 20.1016 12.4285 19.9288 12.5955L15.0704 17.4538L12.0454 14.4288C11.8725 14.2618 11.641 14.1694 11.4006 14.1715C11.1603 14.1736 10.9304 14.27 10.7604 14.44C10.5905 14.6099 10.4941 14.8399 10.492 15.0802C10.4899 15.3205 10.5823 15.5521 10.7493 15.725L14.4159 19.3917C14.5878 19.5635 14.8209 19.66 15.064 19.66C15.3071 19.66 15.5402 19.5635 15.7121 19.3917L21.2121 13.8917H21.2249Z" fill="#22F300"/>
<path fill-rule="evenodd" clip-rule="evenodd" d="M27 16C27 22.0683 22.0683 27 16 27C9.93167 27 5 22.0683 5 16C5 9.93167 9.93167 5 16 5C22.0683 5 27 9.93167 27 16ZM25.1667 16C25.1667 21.06 21.06 25.1667 16 25.1667C10.94 25.1667 6.83333 21.06 6.83333 16C6.83333 10.94 10.94 6.83333 16 6.83333C21.06 6.83333 25.1667 10.94 25.1667 16Z" fill="#22F300"/>
</g>
<defs>
<clipPath id="clip0_215_72">
<rect width="22" height="22" fill="white" transform="translate(5 5)"/>
</clipPath>
</defs>
</svg>
